<svg xmlns="http://www.w3.org/2000/svg" width="24" height="24" viewBox="0 0 24 24">
    <g fill="none" fill-rule="evenodd">
        <path fill="currentColor" d="M12 2c5.523 0 10 4.477 10 10s-4.477 10-10 10S2 17.523 2 12 6.477 2 12 2zm0 4.25c-.414 0-.75.336-.75.75v4.25H7l-.102.007c-.366.05-.648.363-.648.743 0 .414.336.75.75.75h4.25V17l.007.102c.05.366.363.648.743.648.414 0 .75-.336.75-.75v-4.25H17l.102-.007c.366-.05.648-.363.648-.743 0-.414-.336-.75-.75-.75h-4.25V7l-.007-.102c-.05-.366-.363-.648-.743-.648z" transform="translate(-176 -764) translate(0 758) translate(19 6) translate(157)"/>
    </g>
</svg>
