<svg xmlns="http://www.w3.org/2000/svg" width="20" height="20" viewBox="0 0 20 20">
    <g fill="none" fill-rule="evenodd">
        <g transform="translate(-335 -176) translate(335 176)">
            <circle cx="10" cy="10" r="10" fill="#CCC"/>
            <path fill="#FFF" fill-rule="nonzero" d="M13.795 6.205c.408.407.438 1.05.088 1.492l-.088.098L11.591 10l2.204 2.205c.44.439.44 1.151 0 1.59-.407.408-1.05.438-1.492.088l-.098-.088L10 11.591l-2.205 2.204c-.439.44-1.151.44-1.59 0-.408-.407-.438-1.05-.088-1.492l.088-.098L8.409 10 6.205 7.795c-.44-.439-.44-1.151 0-1.59.407-.408 1.05-.438 1.492-.088l.098.088L10 8.409l2.205-2.204c.439-.44 1.151-.44 1.59 0z"/>
        </g>
    </g>
</svg>
