<svg xmlns="http://www.w3.org/2000/svg" width="36" height="36" viewBox="0 0 36 36">
    <g fill="none" fill-rule="evenodd">
        <path stroke="#FF8598" stroke-linejoin="round" stroke-width="3" d="M9 16L18 7 27 16" transform="translate(-2295 -575) translate(2295 575)"/>
        <path fill="#FA506B" d="M8.766 15h18.468c1.01 0 1.86.751 1.985 1.752l1.5 12c.137 1.096-.64 2.096-1.736 2.233-.083.01-.166.015-.249.015H7.266c-1.105 0-2-.895-2-2 0-.083.005-.166.015-.248l1.5-12c.125-1 .976-1.752 1.985-1.752z" transform="translate(-2295 -575) translate(2295 575) rotate(-180 18 23)"/>
        <path stroke="#FFF" stroke-width="1.5" d="M11.823 20.823c.246-.073.309-.045.354 0 .045.045.073.108.073.177h0v5c0 .069-.028.132-.073.177-.045.045-.108.073-.177.073-.069 0-.132-.028-.177-.073-.045-.045-.073-.108-.073-.177h0v-5c0-.069.028-.132.073-.177zM17.823 20.823c.246-.073.309-.045.354 0 .045.045.073.108.073.177h0v5c0 .069-.028.132-.073.177-.045.045-.108.073-.177.073-.069 0-.132-.028-.177-.073-.045-.045-.073-.108-.073-.177h0v-5c0-.069.028-.132.073-.177zM23.823 20.823c.246-.073.309-.045.354 0 .045.045.073.108.073.177h0v5c0 .069-.028.132-.073.177-.045.045-.108.073-.177.073-.069 0-.132-.028-.177-.073-.045-.045-.073-.108-.073-.177h0v-5c0-.069.028-.132.073-.177z" transform="translate(-2295 -575) translate(2295 575)"/>
        <path fill="#FA506B" d="M5 14h26c.552 0 1 .448 1 1v3c0 .552-.448 1-1 1H5c-.552 0-1-.448-1-1v-3c0-.552.448-1 1-1z" transform="translate(-2295 -575) translate(2295 575)"/>
    </g>
</svg>
