<svg xmlns="http://www.w3.org/2000/svg" width="36" height="36" viewBox="0 0 36 36">
    <g fill="none" fill-rule="evenodd">
        <path fill="#FAB619" d="M9 8l.716-2.864C9.883 4.468 10.483 4 11.171 4H24.83c.688 0 1.288.468 1.455 1.136L27 8c.643 2.572.295 5.292-.974 7.62l-1.755 3.216c-1.448 2.656-1.728 5.794-.771 8.664l1.061 3.184c.175.524-.108 1.09-.632 1.265-.102.034-.209.051-.316.051H12.387c-.552 0-1-.448-1-1 0-.107.018-.214.052-.316L12.5 27.5c.957-2.87.677-6.008-.771-8.664L9.974 15.62C8.704 13.292 8.357 10.572 9 8z" transform="translate(-32 -322) translate(20 312) translate(12 10)"/>
        <path fill="#FFC338" d="M23.5 27.5l1.061 3.184c.175.524-.108 1.09-.632 1.265-.102.034-.209.051-.316.051H12.387c-.552 0-1-.448-1-1 0-.107.018-.214.052-.316L12.5 27.5c.055-.166.106-.332.153-.5h10.694c.047.168.098.334.153.5z" transform="translate(-32 -322) translate(20 312) translate(12 10)"/>
        <path stroke="#FFF" stroke-linecap="round" stroke-linejoin="round" stroke-width="2" d="M12 8L24 8" transform="translate(-32 -322) translate(20 312) translate(12 10)"/>
    </g>
</svg>
