<svg xmlns="http://www.w3.org/2000/svg" width="138" height="22" viewBox="0 0 138 22">
    <g fill="none" fill-rule="evenodd">
        <g fill="currentColor">
            <path d="M161.72 24.902c1.61 0 3.065.353 4.369 1.057 1.303.705 2.326 1.715 3.07 3.031.708 1.254 1.078 2.7 1.112 4.338l.002.262-.013.23-.078 1.061H157.75l.038.162c.242.96.76 1.725 1.55 2.294.835.601 1.874.902 3.116.902.855 0 1.614-.13 2.275-.389.607-.237 1.175-.601 1.705-1.091l.144-.137 2.535 2.798-.12.137c-1.544 1.712-3.764 2.568-6.661 2.568-1.854 0-3.493-.368-4.918-1.104-1.426-.736-2.525-1.756-3.3-3.062-.773-1.306-1.16-2.788-1.16-4.445 0-1.638.382-3.114 1.145-4.43.764-1.316 1.813-2.342 3.147-3.078 1.334-.736 2.825-1.104 4.475-1.104zM71.415 21c2.488 0 4.18.422 5.635 1.214s2.597 1.954 3.376 3.435c.778 1.48 1.192 3.202 1.192 5.735v1.232c0 2.533-.414 4.254-1.192 5.735-.779 1.481-1.92 2.643-3.376 3.435-1.455.792-3.147 1.214-5.635 1.214h-1.21c-2.49 0-4.181-.422-5.636-1.214s-2.597-1.954-3.375-3.435C60.414 36.871 60 35.15 60 32.616v-1.232c0-2.533.414-4.254 1.193-5.735.778-1.481 1.92-2.643 3.375-3.435C66.023 21.422 67.715 21 70.203 21h1.211zm43.099 4.38v11.096c0 .212.168.383.376.383h3.477c.208 0 .376-.171.376-.383V25.381h4.7v11.095c0 .212.168.383.376.383h3.477c.208 0 .376-.171.376-.383V25.381h4.7v9.804c0 3.83-3.051 6.935-6.814 6.935-1.708 0-3.27-.64-4.465-1.696-1.195 1.056-2.756 1.696-4.464 1.696-3.764 0-6.814-3.105-6.814-6.935v-9.804h4.699zm-25.377 0v11.096c0 .212.169.383.376.383h3.478c.207 0 .376-.171.376-.383V25.381h4.7v11.095c0 .212.167.383.375.383h3.478c.207 0 .376-.171.376-.383V25.381h4.699v9.804c0 3.83-3.05 6.935-6.814 6.935-1.708 0-3.269-.64-4.465-1.696-1.195 1.056-2.756 1.696-4.464 1.696-3.763 0-6.814-3.105-6.814-6.935v-9.804h4.7zm101.991-.712c1.16 0 2.317.13 3.467.389 1.069.24 1.966.566 2.692.976l.164.096-1.588 3.45-.208-.115c-1.389-.752-2.898-1.128-4.527-1.128-1.018 0-1.782.145-2.29.436-.51.29-.764.663-.764 1.119 0 .518.274.88.824 1.088.324.122.76.24 1.309.355l.343.068.181.034.384.067.41.066.266.046.511.093.486.095c.787.158 1.466.324 2.036.497.856.259 1.599.73 2.23 1.414.631.684.947 1.638.947 2.86 0 1.037-.305 1.959-.916 2.767-.611.808-1.502 1.435-2.673 1.88-1.171.446-2.56.67-4.17.67-1.364 0-2.698-.172-4.001-.514-1.222-.32-2.211-.718-2.968-1.194l-.148-.096 1.588-3.482.172.109c.699.427 1.527.78 2.486 1.057 1.039.3 2.057.451 3.055.451 2.016 0 3.024-.508 3.024-1.523 0-.477-.275-.819-.825-1.026-.485-.183-1.2-.342-2.145-.476l-.39-.053c-1.344-.207-2.454-.445-3.33-.715-.876-.269-1.634-.746-2.276-1.43-.641-.684-.962-1.658-.962-2.922 0-1.057.3-1.995.901-2.813.601-.819 1.477-1.456 2.627-1.912 1.15-.456 2.51-.684 4.078-.684zm-46.538.713c4.23 0 6.11 2.87 6.11 6.695v9.566h-4.7V30.068c0-.195-.144-.356-.329-.38l-.047-.003h-5.357c-.192 0-.35.146-.373.335l-.003.048v11.574h-4.7V25.38h4.7v2.037c1.246-1.358 2.5-2.037 4.7-2.037zm37.595-.028v4.332h-4.605c-.292 0-.532.226-.561.515l-.003.059v11.383h-4.7V25.38h4.7v2.204c1.364-1.392 3.087-2.136 5.17-2.232zm-106.112.908H65.545c-.191 0-.35.146-.373.334l-.003.048v10.714c0 .195.144.356.33.38l.046.002h8.048l2.554 2.342c.033.025.072.038.113.038.09 0 .167-.065.184-.153l.004-.038V26.643c0-.21-.168-.382-.376-.382zm85.68 2.31c-1.08 0-1.986.31-2.72.932-.694.59-1.133 1.383-1.315 2.381l-.028.168h8.094c-.163-1.057-.61-1.901-1.344-2.533-.733-.632-1.629-.948-2.688-.948z" transform="translate(-60 -21)"/>
        </g>
    </g>
</svg>
