<svg xmlns="http://www.w3.org/2000/svg" width="2732" height="2732" viewBox="0 0 2732 2732">
	<g fill="none" fill-rule="evenodd">
		<path fill="#FFF" d="M0 0H2732V2732H0z" />
		<path fill="#147BF9" d="M147.084 0h25.832c38.492 0 61.879 5.863 82.464 16.872 20.585 11.008 36.74 27.163 47.748 47.748C314.138 85.205 320 108.592 320 147.084v25.832c0 38.492-5.863 61.879-16.872 82.464-11.008 20.585-27.163 36.74-47.748 47.748C234.795 314.138 211.408 320 172.916 320h-25.832c-38.492 0-61.879-5.863-82.464-16.872-20.585-11.008-36.74-27.163-47.748-47.748C5.862 234.795 0 211.408 0 172.916v-25.832c0-38.492 5.863-61.879 16.872-82.464C27.88 44.035 44.035 27.88 64.62 16.872 85.205 5.862 108.592 0 147.084 0z" transform="translate(1085 1036) translate(121)" />
		<path fill="#FFF" d="M227.18 80c4.458 0 6.075.464 7.704 1.336 1.63.871 2.909 2.15 3.78 3.78.872 1.63 1.336 3.246 1.336 7.703V240h-.001l.001 16.752c0 1.726-1.4 3.125-3.125 3.125-.497 0-.988-.119-1.43-.347L197.502 240H92.819c-4.457 0-6.074-.464-7.703-1.336-1.63-.871-2.909-2.15-3.78-3.78-.872-1.63-1.336-3.246-1.336-7.703V92.819c0-4.457.464-6.074 1.336-7.703.871-1.63 2.15-2.909 3.78-3.78 1.63-.872 3.246-1.336 7.703-1.336h134.362z" transform="translate(1085 1036) translate(121)" />
		<path fill="#3D3D3D" d="M45.614 394c10.192 0 16.253 1.522 21.613 4.379 5.36 2.857 9.567 7.05 12.433 12.393 2.867 5.342 4.393 11.384 4.393 21.543v7.151c0 10.16-1.526 16.201-4.393 21.544-2.866 5.342-7.073 9.535-12.433 12.392-5.36 2.858-11.42 4.38-21.613 4.38h-7.175c-10.192 0-16.253-1.522-21.613-4.38-5.36-2.857-9.566-7.05-12.433-12.392C1.527 455.667 0 449.625 0 439.466v-7.15c0-10.16 1.527-16.202 4.393-21.544 2.867-5.343 7.073-9.536 12.433-12.393 5.36-2.857 11.421-4.379 21.613-4.379h7.175zm369.171 18.213c13.937 0 25.271 11.11 25.575 24.93l.006.569v10.928h-47.508v8.196c0 1.42 1.087 2.587 2.477 2.72l.264.012h23.754c2.918 0 4.865-1.548 5.841-4.644l15.048 2.498c-2.078 12.427-12.66 18.354-28.371 18.534l-.74.004h-10.964c-13.937 0-25.271-11.11-25.575-24.93l-.006-.569v-12.749c0-13.892 11.145-25.19 25.01-25.492l.571-.007h14.618zm-95.017 0l.002 8.443c5.695-5.628 13.003-8.443 21.925-8.443 16.445 0 25.582 10.928 25.582 25.499v36.427h-18.273v-40.98c0-1.42-1.087-2.587-2.477-2.72l-.264-.012H322.51c-1.425 0-2.595 1.083-2.728 2.469l-.013.263v40.98h-18.272v-61.926h18.272zm148.007 0l.001 8.395c5.301-5.3 12.001-8.028 20.099-8.395v18.213h-17.359c-1.425 0-2.595 1.084-2.728 2.47l-.013.263v40.98h-18.272v-61.926h18.272zm-363.622 0l11.877 40.07 15.532-40.07h16.445l11.877 41.891 15.532-41.89h29.236l11.877 40.069 15.531-40.07h16.446l11.877 41.891 15.531-41.89h18.273l-24.668 61.925h-18.273l-10.963-36.427-14.618 36.427h-18.272L189.74 422.12l-20.72 52.018h-18.273l-10.964-36.427-14.618 36.427h-18.272L85.88 412.213h18.272zm453.157 0v16.392h-39.834c-1.135 0-2.069.86-2.181 1.962l-.011.224v2.914c0 1.132.862 2.062 1.968 2.174l.224.012h26.13c10.596 0 19.186 8.562 19.186 19.124s-8.59 19.124-19.186 19.124h-44.768v-16.392h45.316c1.135 0 2.07-.86 2.181-1.962l.012-.224v-4.735c0-1.132-.863-2.063-1.969-2.175l-.224-.011h-28.87c-10.092 0-18.273-8.154-18.273-18.213 0-10.06 8.181-18.214 18.273-18.214h42.026zm-495.184 1.822H21.927c-.937 0-1.71.703-1.815 1.609l-.012.212v40.07c0 .933.705 1.703 1.614 1.808l.213.013h40.2c.936 0 1.709-.703 1.814-1.61l.013-.212v-40.069c0-.934-.706-1.704-1.615-1.81l-.213-.011zm357.227 14.57H395.6c-1.425 0-2.596 1.084-2.728 2.47l-.013.262v6.375h29.236v-6.375c0-1.42-1.087-2.587-2.477-2.72l-.264-.012zM506.147 394v18.213h-18.272V394h18.272z" transform="translate(1085 1036)" />
	</g>
</svg>
