<svg xmlns="http://www.w3.org/2000/svg" width="24" height="24" viewBox="0 0 24 24">
    <g fill="none" fill-rule="evenodd">
        <g fill="currentColor">
            <path d="M16 2c3.314 0 6 2.686 6 6v4c0 1.9-.882 3.592-2.26 4.692l-4.9 4.532c-.093.085-.214.133-.34.133-.245 0-.45-.177-.492-.41l-.008-.09V18H8c-3.314 0-6-2.686-6-6V8c0-3.314 2.686-6 6-6h8zm-4 7c-.552 0-1 .448-1 1s.448 1 1 1 1-.448 1-1-.448-1-1-1zM8 9c-.552 0-1 .448-1 1s.448 1 1 1 1-.448 1-1-.448-1-1-1zm8 0c-.552 0-1 .448-1 1s.448 1 1 1 1-.448 1-1-.448-1-1-1z" transform="translate(-25 -764) translate(0 758) translate(19 6) translate(6)"/>
        </g>
    </g>
</svg>
