<svg xmlns="http://www.w3.org/2000/svg" width="18" height="18" viewBox="0 0 18 18">
    <g fill="none" fill-rule="evenodd">
        <g>
            <path d="M0 0H18V18H0z" transform="translate(-83 -313) translate(0 112) translate(0 192) translate(18 4) translate(57) translate(8 5)"/>
        </g>
        <path fill="currentColor" fill-rule="nonzero" d="M5 13c-1.657 0-3-1.343-3-3V4c0-1.657 1.343-3 3-3h8c1.657 0 3 1.343 3 3v6c0 .897-.394 1.702-1.018 2.252l-4.12 4.34c-.094.099-.225.155-.362.155-.276 0-.5-.224-.5-.5V13H5z" transform="translate(-83 -313) translate(0 112) translate(0 192) translate(18 4) translate(57) translate(8 5)"/>
    </g>
</svg>
