<svg xmlns="http://www.w3.org/2000/svg" width="20" height="20" viewBox="0 0 20 20">
    <g fill="none" fill-rule="evenodd">
    <path d="M0 0L20 0 20 20 0 20z" transform="translate(-32 -716) translate(0 651) translate(0 48) translate(32 17)"/>
    <path fill="currentColor" d="M9.992 1.667c-4.6 0-8.325 3.733-8.325 8.333s3.725 8.333 8.325 8.333c4.608 0 8.341-3.733 8.341-8.333S14.6 1.667 9.992 1.667zm.008 15c-3.683 0-6.667-2.984-6.667-6.667S6.317 3.333 10 3.333 16.667 6.317 16.667 10 13.683 16.667 10 16.667zm2.917-7.5c.691 0 1.25-.559 1.25-1.25 0-.692-.559-1.25-1.25-1.25-.692 0-1.25.558-1.25 1.25 0 .691.558 1.25 1.25 1.25zm-5.834 0c.692 0 1.25-.559 1.25-1.25 0-.692-.558-1.25-1.25-1.25-.691 0-1.25.558-1.25 1.25 0 .691.559 1.25 1.25 1.25zM10 14.583c1.942 0 3.592-1.216 4.258-2.916H5.742c.666 1.7 2.316 2.916 4.258 2.916z" transform="translate(-32 -716) translate(0 651) translate(0 48) translate(32 17)"/>
    </g>
</svg>
