<svg xmlns="http://www.w3.org/2000/svg" width="48" height="48" viewBox="0 0 48 48">
    <g fill="none" fill-rule="evenodd">
        <g fill-rule="nonzero">
            <g transform="translate(-119 -674) translate(0 580) translate(119 94)">
                <circle cx="24" cy="24" r="24" fill="#FFE17D"/>
                <path fill="#FFD164" d="M27.484 44.516c-13.255 0-24-10.745-24-24 0-5.74 2.017-11.007 5.379-15.137C3.456 9.779 0 16.485 0 24c0 13.255 10.745 24 24 24 7.515 0 14.22-3.456 18.621-8.863-4.13 3.361-9.397 5.38-15.137 5.38z"/>
                <g fill="#AA7346">
                    <path d="M.996 5.042c-.356 0-.697-.197-.867-.536-.239-.478-.045-1.059.433-1.298L6.756.11c.478-.238 1.06-.044 1.298.433.24.478.046 1.06-.433 1.298L1.427 4.94c-.138.07-.286.103-.431.103zM27.317 5.042c-.145 0-.294-.033-.432-.103l-6.194-3.097c-.478-.239-.672-.82-.433-1.298.238-.478.82-.673 1.298-.433l6.194 3.097c.479.24.672.82.433 1.298-.17.34-.51.536-.866.536z" transform="translate(9.844 15.281)"/>
                </g>
                <path fill="#9C6846" d="M23.994 37.938c-2.137 0-3.87-1.733-3.87-3.87v-2.323c0-2.138 1.733-3.871 3.87-3.871 2.138 0 3.871 1.733 3.871 3.87v2.323c0 2.138-1.733 3.871-3.87 3.871z"/>
                <path fill="#FFF" d="M20.202 30.968h7.585c-.36-1.766-1.92-3.094-3.793-3.094-1.871 0-3.432 1.328-3.792 3.094z"/>
                <path fill="#7D5046" d="M20.124 31.745v1.545h7.742v-1.545c0-.266-.028-.526-.079-.777h-7.585c-.051.25-.078.51-.078.777z"/>
                <path fill="#A5CDFF" d="M13.069 23.162c-.491 2.92-1.863 2.98-2.225 6.32-.387 3.57 1.152 3.746.764 7.316-.358 3.309-1.703 3.41-2.207 6.246 2.053 1.576 4.368 2.826 6.87 3.677.127-3.475 1.535-3.655 1.535-7.457 0-3.98-1.548-3.98-1.548-7.961 0-3.978 1.548-3.978 1.548-7.956l-4.737-.185z"/>
                <path fill="#AA7346" d="M15.48 24.968c-1.47 0-2.874-.696-3.85-1.91-.335-.416-.269-1.025.148-1.36.415-.335 1.025-.268 1.36.147.616.766 1.448 1.187 2.343 1.187s1.727-.421 2.342-1.187c.334-.415.944-.482 1.361-.147.417.334.483.943.148 1.36-.976 1.214-2.38 1.91-3.851 1.91z"/>
                <path fill="#8CB4EB" d="M17.382 42.286c-2.22-1.031-4.257-2.387-6.045-4.014-.535 1.95-1.52 2.434-1.936 4.772 2.053 1.576 4.368 2.826 6.87 3.676.08-2.22.685-3.098 1.11-4.434z"/>
                <path fill="#A5CDFF" d="M37.156 29.483c-.362-3.34-1.734-3.4-2.225-6.321l-4.737.185c0 3.978 1.548 3.978 1.548 7.956 0 3.98-1.548 3.98-1.548 7.961 0 3.802 1.408 3.982 1.536 7.457 2.5-.851 4.816-2.1 6.87-3.677-.505-2.836-1.85-2.937-2.208-6.245-.388-3.57 1.151-3.746.764-7.316z"/>
                <path fill="#8CB4EB" d="M31.73 46.72c2.5-.85 4.816-2.1 6.87-3.676-.077-.428-.174-.789-.282-1.112-2.166 1.099-4.522 1.876-7.005 2.275.21.655.376 1.422.416 2.514z"/>
                <path fill="#AA7346" d="M32.52 24.968c-1.473 0-2.876-.696-3.852-1.91-.335-.417-.269-1.026.148-1.36.417-.335 1.027-.269 1.36.147.616.766 1.448 1.187 2.343 1.187s1.727-.421 2.343-1.187c.333-.415.944-.482 1.36-.147.417.334.483.944.148 1.36-.976 1.214-2.38 1.91-3.85 1.91z"/>
            </g>
        </g>
    </g>
</svg>
