<svg xmlns="http://www.w3.org/2000/svg" width="48" height="48" viewBox="0 0 48 48">
    <g fill="none" fill-rule="evenodd">
        <g fill-rule="nonzero">
            <g transform="translate(-206 -674) translate(0 580) translate(206 94)">
                <circle cx="24" cy="24" r="24" fill="#FFE17D"/>
                <path fill="#FFD164" d="M27.484 44.516c-13.255 0-24-10.745-24-24 0-5.74 2.017-11.007 5.379-15.137C3.456 9.779 0 16.485 0 24c0 13.255 10.745 24 24 24 7.515 0 14.22-3.456 18.621-8.863-4.13 3.361-9.397 5.38-15.137 5.38z"/>
                <g fill="#AA7346">
                    <path d="M9.512 8.933c-.284 0-.564-.123-.755-.361-.615-.765-1.447-1.187-2.343-1.187-.895 0-1.727.422-2.342 1.187-.335.416-.944.483-1.36.148-.417-.335-.484-.944-.149-1.36.976-1.215 2.38-1.91 3.851-1.91 1.472 0 2.876.696 3.852 1.91.335.416.268 1.025-.149 1.36-.178.143-.393.213-.605.213zM.995 5.063c-.384 0-.747-.23-.898-.609-.2-.496.042-1.06.539-1.258L8.378.1c.49-.198 1.058.042 1.257.54.199.496-.042 1.06-.539 1.258L1.354 4.993c-.117.048-.239.07-.359.07zM18.8 8.933c-.212 0-.426-.07-.605-.213-.417-.335-.483-.944-.148-1.36.975-1.214 2.38-1.91 3.851-1.91 1.472 0 2.875.696 3.851 1.91.335.416.269 1.025-.148 1.36-.416.335-1.026.268-1.36-.148-.615-.765-1.448-1.187-2.343-1.187-.896 0-1.727.422-2.342 1.187-.191.238-.472.361-.755.361zM27.318 5.063c-.12 0-.242-.022-.36-.07l-7.742-3.096c-.496-.199-.738-.762-.539-1.258.2-.497.762-.737 1.258-.54l7.742 3.097c.496.199.738.762.539 1.258-.151.379-.514.609-.898.609z" transform="translate(9.844 12.938)"/>
                </g>
                <path fill="#9C6846" d="M24 28.622c-4.624 0-9.038-.537-13.087-1.507-.525-.126-.977.422-.815.993 1.867 6.593 7.38 11.376 13.902 11.376 6.522 0 12.035-4.783 13.902-11.376.162-.57-.29-1.119-.815-.993-4.049.97-8.463 1.507-13.087 1.507z"/>
                <path fill="#7D5046" d="M37.087 27.115c-4.049.97-8.463 1.507-13.087 1.507-4.624 0-9.038-.536-13.087-1.507-.525-.126-.977.422-.815.993.489 1.726 1.233 3.323 2.174 4.748 3.847.73 7.761 1.133 11.73 1.133 3.967 0 7.88-.402 11.726-1.133.941-1.424 1.685-3.021 2.174-4.748.162-.57-.29-1.119-.815-.993z"/>
                <path fill="#FFF" d="M34.41 29.759c.42-.717.77-1.486 1.063-2.285-3.598.742-7.456 1.148-11.473 1.148-4.02 0-7.88-.406-11.48-1.15.296.804.652 1.574 1.073 2.294.487.832 1.311 1.365 2.208 1.474 2.686.327 5.424.502 8.199.502 2.775 0 5.512-.175 8.197-.502.9-.11 1.726-.645 2.214-1.481z"/>
                <path fill="#A5CDFF" d="M1.36 34.252c-1.813-1.814-1.813-4.755 0-6.569 2.708-2.707 8.392-3.927 10.305-4.272.317-.057.594.22.537.537-.345 1.913-1.565 7.597-4.272 10.304-1.814 1.814-4.755 1.814-6.57 0z"/>
                <path fill="#8CB4EB" d="M3.86 34.075c-1.813-1.814-1.813-4.755 0-6.57 1.398-1.396 3.918-2.728 6.355-3.799-2.513.566-6.66 1.783-8.854 3.977-1.814 1.814-1.814 4.755 0 6.57C2.669 35.56 4.56 35.91 6.195 35.33c-.855-.178-1.67-.593-2.334-1.256z"/>
                <path fill="#A5CDFF" d="M46.64 34.252c1.813-1.814 1.813-4.755 0-6.569-2.708-2.707-8.392-3.927-10.305-4.272-.317-.057-.594.22-.537.537.345 1.913 1.565 7.597 4.272 10.304 1.814 1.814 4.755 1.814 6.57 0z"/>
                <path fill="#8CB4EB" d="M42.215 33.3c-1.989-1.989-4.13-6.539-5.512-9.82-.133-.026-.258-.05-.368-.069-.317-.057-.594.22-.537.537.345 1.913 1.565 7.597 4.272 10.304 1.685 1.685 4.33 1.784 6.154.34-1.417.223-2.917-.2-4.009-1.291z"/>
            </g>
        </g>
    </g>
</svg>
