<svg xmlns="http://www.w3.org/2000/svg" width="24" height="24" viewBox="0 0 24 24">
    <g fill="none" fill-rule="evenodd">
        <g transform="translate(-28 -714) translate(0 651) translate(0 48) translate(28 15)">
            <circle cx="12" cy="12" r="9.25" stroke="currentColor" stroke-width="1.5"/>
            <path fill="currentColor" d="M17 14c0 1-1.875 3.5-5 3.5S7 15 7 14zM8.5 9c.828 0 1.5.672 1.5 1.5S9.328 12 8.5 12 7 11.328 7 10.5 7.672 9 8.5 9zm7 0c.828 0 1.5.672 1.5 1.5s-.672 1.5-1.5 1.5-1.5-.672-1.5-1.5.672-1.5 1.5-1.5z"/>
        </g>
    </g>
</svg>
