<svg xmlns="http://www.w3.org/2000/svg" width="18" height="18" viewBox="0 0 18 18">
    <g fill="none" fill-rule="evenodd">
        <g fill="currentColor" fill-rule="nonzero">
            <path d="M9 1c4.418 0 8 3.582 8 8s-3.582 8-8 8-8-3.582-8-8 3.582-8 8-8zm4 9H5c0 1 1.5 3 4 3s4-2 4-3zM6.25 6C5.56 6 5 6.56 5 7.25S5.56 8.5 6.25 8.5 7.5 7.94 7.5 7.25 6.94 6 6.25 6zm5.5 0c-.69 0-1.25.56-1.25 1.25s.56 1.25 1.25 1.25S13 7.94 13 7.25 12.44 6 11.75 6z" transform="translate(-26 -313) translate(0 112) translate(0 192) translate(18 4) translate(8 5)"/>
        </g>
    </g>
</svg>
