<svg xmlns="http://www.w3.org/2000/svg" width="48" height="48" viewBox="0 0 48 48">
    <g fill="none" fill-rule="evenodd">
        <g fill-rule="nonzero">
            <g transform="translate(-294 -674) translate(0 580) translate(294 94)">
                <circle cx="24" cy="24" r="24" fill="#FFE17D"/>
                <path fill="#FFD164" d="M27.484 44.516c-13.255 0-24-10.745-24-24 0-5.74 2.017-11.007 5.379-15.137C3.456 9.779 0 16.485 0 24c0 13.255 10.745 24 24 24 7.515 0 14.22-3.456 18.621-8.863-4.13 3.361-9.397 5.38-15.137 5.38z"/>
                <g fill="#AA7346">
                    <path d="M4.89 10.458c-1.472 0-2.876-.697-3.851-1.91-.335-.417-.269-1.026.148-1.361.419-.335 1.026-.268 1.36.149.615.765 1.447 1.186 2.343 1.186.896 0 1.728-.421 2.342-1.186.335-.417.943-.484 1.361-.149.417.335.483.944.148 1.36-.975 1.214-2.379 1.91-3.85 1.91zM21.925 10.458c-1.472 0-2.876-.697-3.85-1.91-.336-.417-.27-1.026.147-1.361.418-.335 1.027-.268 1.361.149.615.765 1.446 1.186 2.342 1.186.896 0 1.728-.421 2.343-1.186.335-.417.942-.484 1.36-.149.417.335.484.944.149 1.36-.976 1.214-2.38 1.91-3.852 1.91zM8.76 5.813c-.145 0-.293-.033-.431-.103L.587 1.84C.108 1.6-.085 1.02.153.54.392.064.973-.132 1.452.109L9.194 3.98c.478.24.672.82.433 1.299-.17.339-.511.535-.867.535zM18.052 5.813c-.355 0-.697-.196-.866-.535-.24-.479-.046-1.06.433-1.299L25.36.109c.478-.239 1.06-.045 1.298.432.239.478.045 1.06-.433 1.298L18.484 5.71c-.139.07-.287.103-.432.103zM25.018 20.522c-.188 0-.378-.054-.545-.168-2.726-1.861-6.76-2.929-11.067-2.929-4.306 0-8.34 1.068-11.067 2.929-.441.301-1.043.187-1.345-.254-.301-.442-.187-1.044.254-1.345 3.04-2.075 7.472-3.265 12.158-3.265 4.686 0 9.118 1.19 12.16 3.265.44.301.554.903.252 1.345-.187.274-.49.422-.8.422z" transform="translate(10.594 12.188)"/>
                </g>
                <path fill="#FFF" d="M17.219 37.466l4.548-11.031c.133-.322-.284-.584-.517-.326l-7.995 8.889c-.46.473-1.203.6-1.752.233-.938-.629-2.186-.786-3.36-.22-1.036.5-1.739 1.552-1.844 2.698-.061.678.07 1.28.33 1.794.242.478.202 1.286-.025 1.77-.524 1.117-.616 2.446-.112 3.733.744 1.898 2.715 3.123 4.746 2.95 1.377-.117 2.529-.788 3.298-1.751.334-.419 1.04-.812 1.576-.807.577.005 1.174-.143 1.755-.498.981-.601 1.613-1.697 1.603-2.848-.011-1.302-.704-2.352-1.683-2.916-.572-.329-.79-1.048-.568-1.67z"/>
                <path fill="#FFF1C4" d="M8.812 44.218c-.498-1.27-.415-2.58.09-3.688.264-.578.333-1.247.047-1.815-.24-.476-.371-1.025-.34-1.641.045-.935.496-1.807 1.193-2.402-.452-.022-.919.042-1.38.22-1.222.468-2.069 1.663-2.133 2.97-.03.616.1 1.166.34 1.641.287.568.218 1.237-.046 1.815-.505 1.107-.588 2.419-.09 3.689.744 1.897 2.714 3.122 4.745 2.95.85-.073 1.614-.356 2.255-.789-2.008.142-3.945-1.072-4.681-2.95z"/>
                <path fill="#FFF" d="M30.784 37.452l-4.55-11.019c-.133-.321.283-.584.516-.325l7.998 8.876c.46.473 1.203.6 1.752.233.938-.629 2.186-.786 3.36-.22 1.036.5 1.739 1.552 1.844 2.698.062.678-.07 1.28-.33 1.794-.242.479-.202 1.286.025 1.77.524 1.117.616 2.446.112 3.733-.744 1.898-2.715 3.123-4.746 2.95-1.377-.117-2.529-.788-3.298-1.751-.334-.419-1.04-.812-1.576-.807-.577.005-1.174-.143-1.755-.498-.981-.601-1.613-1.697-1.603-2.848.012-1.302.705-2.352 1.683-2.916.573-.33.79-1.048.568-1.67z"/>
                <path fill="#FFF1C4" d="M37.54 45.661c-1.36-.115-2.499-.77-3.268-1.713-.402-.493-.971-.85-1.607-.845-.533.004-1.084-.121-1.622-.421-1.02-.567-1.68-1.653-1.727-2.805-.42.501-.701 1.135-.768 1.858-.12 1.304.577 2.592 1.72 3.228.54.3 1.09.425 1.623.42.636-.005 1.205.353 1.607.846.769.943 1.908 1.598 3.267 1.713 2.031.173 4.002-1.052 4.746-2.95.187-.478.292-.963.323-1.44-.928 1.403-2.585 2.255-4.295 2.11z"/>
            </g>
        </g>
    </g>
</svg>
