<svg xmlns="http://www.w3.org/2000/svg" width="18" height="18" viewBox="0 0 18 18">
    <g fill="none" fill-rule="evenodd">
        <g fill-rule="nonzero">
            <g transform="translate(-318 -665) translate(0 663) translate(318 2)">
                <circle cx="9" cy="9" r="9" fill="#FFE17D"/>
                <path fill="#FFD164" d="M10.306 16.694c-4.97 0-9-4.03-9-9 0-2.153.757-4.128 2.018-5.677C1.296 3.667 0 6.182 0 9c0 4.97 4.03 9 9 9 2.818 0 5.333-1.296 6.983-3.324-1.549 1.26-3.524 2.018-5.677 2.018z"/>
                <path fill="#9C6846" d="M8.998 11.243c-1.638 0-3.202-.177-4.637-.495-.186-.041-.346.138-.289.326.662 2.164 2.615 3.733 4.926 3.733 2.31 0 4.264-1.57 4.926-3.733.057-.188-.103-.367-.29-.326-1.434.318-2.998.495-4.636.495z"/>
                <path fill="#7D5046" d="M9 12.484c1.52 0 3.02-.144 4.496-.401.173-.319.32-.655.428-1.01.057-.187-.103-.366-.289-.325-1.435.318-2.999.495-4.637.495-1.638 0-3.202-.177-4.637-.495-.186-.041-.346.138-.289.326.108.354.254.69.428 1.008 1.477.258 2.978.402 4.5.402z"/>
                <path fill="#E6646E" d="M6.353 8.702c.493-.62 1.661-2.287.995-3.419-.258-.438-.764-.687-1.269-.63-.41.047-.739.263-.945.559-.085.121-.238.171-.378.123-.341-.116-.734-.095-1.092.11-.44.252-.702.753-.65 1.258.132 1.307 2.06 1.959 2.825 2.167.189.051.391-.015.514-.168zM11.647 8.702c-.493-.62-1.661-2.287-.995-3.419.258-.438.764-.687 1.269-.63.41.047.739.263.945.559.085.121.238.171.378.123.341-.116.734-.095 1.092.11.44.252.702.753.65 1.258-.132 1.307-2.06 1.959-2.825 2.167-.189.051-.391-.015-.514-.168z"/>
                <path fill="#DC4655" d="M6.606 8.112c-.765-.208-2.693-.86-2.825-2.167-.021-.204.011-.406.083-.593-.067.026-.134.055-.2.092-.44.252-.702.754-.65 1.259.132 1.307 2.06 1.959 2.825 2.167.189.051.391-.015.514-.168.113-.143.262-.343.417-.577-.055.004-.11.002-.164-.013z"/>
                <path fill="#E6646E" d="M11.647 8.702c-.493-.62-1.661-2.287-.995-3.419.258-.438.764-.687 1.269-.63.41.047.739.263.945.559.085.121.238.171.378.123.341-.116.734-.095 1.092.11.44.252.702.753.65 1.258-.132 1.307-2.06 1.959-2.825 2.167-.189.051-.391-.015-.514-.168z"/>
                <path fill="#DC4655" d="M12.622 8.524c-.493-.62-1.661-2.286-.995-3.418.103-.175.247-.319.414-.426-.04-.008-.078-.022-.12-.027-.505-.057-1.011.192-1.27.63-.665 1.132.503 2.798.996 3.419.123.153.325.22.514.168.17-.046.397-.115.648-.207-.07-.032-.136-.076-.187-.139z"/>
            </g>
        </g>
    </g>
</svg>
