<svg xmlns="http://www.w3.org/2000/svg" xmlns:xlink="http://www.w3.org/1999/xlink" width="60" height="60" viewBox="0 0 60 60">
    <defs>
        <filter id="50ez0s3w0b" width="116.7%" height="116.7%" x="-8.3%" y="-8.3%" filterUnits="objectBoundingBox">
            <feGaussianBlur in="SourceAlpha" result="shadowBlurInner1" stdDeviation="3"/>
            <feOffset dy="-2" in="shadowBlurInner1" result="shadowOffsetInner1"/>
            <feComposite in="shadowOffsetInner1" in2="SourceAlpha" k2="-1" k3="1" operator="arithmetic" result="shadowInnerInner1"/>
            <feColorMatrix in="shadowInnerInner1" values="0 0 0 0 0.049720091 0 0 0 0 0.162930756 0 0 0 0 0.76452106 0 0 0 0.45 0"/>
        </filter>
        <circle id="0qgw79ivaa" cx="24" cy="24" r="24"/>
    </defs>
    <g fill="none" fill-rule="evenodd">
        <g fill-rule="nonzero">
            <g transform="translate(-1016 -603) translate(990 515) translate(26 88) translate(6 6)">
                <use fill="#147BF9" xlink:href="#0qgw79ivaa"/>
                <use fill="#000" filter="url(#50ez0s3w0b)" xlink:href="#0qgw79ivaa"/>
            </g>
            <path fill="#FFF" d="M25.427 37.863l.264-.163.422-.267.45-.29.478-.316.33-.223.341-.234.349-.243.356-.253.363-.263.184-.135.371-.277.188-.142.378-.291.19-.149.382-.304c4.472-3.596 9.323-8.949 8.265-14.694-.584-3.172-3.056-5.765-6.18-6.517-2.537-.61-4.957-.04-6.824 1.28-.267.19-.692.458-1.275.807-.55-.39-.936-.665-1.156-.826l-.082-.063c-1.778-1.439-4.156-2.166-6.727-1.722-3.166.546-5.8 2.972-6.589 6.1-1.223 4.854 1.904 9.704 5.486 13.435l.36.37c.3.304.604.6.907.888l.363.342.181.167.362.328.18.161.359.315.177.154.353.3.348.291.172.142.34.276.331.266.325.255.316.244.455.346.29.216.414.303.384.275c1.014.718 2.36.763 3.419.111z" transform="translate(-1016 -603) translate(990 515) translate(26 88) translate(6 6) rotate(-1 24.26 25.386)"/>
        </g>
    </g>
</svg>
