<svg xmlns="http://www.w3.org/2000/svg" xmlns:xlink="http://www.w3.org/1999/xlink" width="60" height="60" viewBox="0 0 60 60">
    <defs>
        <linearGradient id="m5dal70eaa" x1="50%" x2="50%" y1="0%" y2="90.749%">
            <stop offset="0%" stop-color="#F13A37"/>
            <stop offset="17.965%" stop-color="#F56D3C"/>
            <stop offset="62.316%" stop-color="#FBA741"/>
            <stop offset="100%" stop-color="#FFDA46"/>
        </linearGradient>
        <filter id="ze0xc2pn9c" width="114.6%" height="114.6%" x="-7.3%" y="-7.3%" filterUnits="objectBoundingBox">
            <feGaussianBlur in="SourceAlpha" result="shadowBlurInner1" stdDeviation="2.5"/>
            <feOffset dy="-2" in="shadowBlurInner1" result="shadowOffsetInner1"/>
            <feComposite in="shadowOffsetInner1" in2="SourceAlpha" k2="-1" k3="1" operator="arithmetic" result="shadowInnerInner1"/>
            <feColorMatrix in="shadowInnerInner1" values="0 0 0 0 0.76452106 0 0 0 0 0.248180456 0 0 0 0 0.049720091 0 0 0 0.45 0"/>
        </filter>
        <circle id="4oq46lsmyb" cx="30" cy="30" r="24"/>
        <path id="s3vc3ousad" d="M13.414 0C5.081 0 0 1.313 0 6.188s3.455 6 13.414 6c9.96 0 13.211-2.338 13.211-6C26.625 1.313 21.747 0 13.415 0z"/>
    </defs>
    <g fill="none" fill-rule="evenodd">
        <g fill-rule="nonzero" transform="translate(-1278 -603) translate(990 515) translate(288 88)">
            <use fill="url(#m5dal70eaa)" xlink:href="#4oq46lsmyb"/>
            <use fill="#000" filter="url(#ze0xc2pn9c)" xlink:href="#4oq46lsmyb"/>
        </g>
        <g>
            <g transform="translate(-1278 -603) translate(990 515) translate(288 88) translate(16.96 15.403) rotate(-15 75.975 4.638) translate(1)">
                <mask id="5y49eeinfe" fill="#fff">
                    <use xlink:href="#s3vc3ousad"/>
                </mask>
                <use fill="#EFF3FC" xlink:href="#s3vc3ousad"/>
                <path stroke="#CED2DA" stroke-linecap="round" stroke-width="1.875" d="M1.626 6.188h22.763" mask="url(#5y49eeinfe)"/>
                <path fill="#471D18" d="M2.53 0c-1.055 4.125 0 6.188 3.16 6.188-3.16 0-4.215 2-3.16 6H0V0h2.53z" mask="url(#5y49eeinfe)"/>
                <path fill="#471D18" d="M23.463 0c-1.053 4.125 0 6.188 3.162 6.188-3.162 0-4.215 2-3.162 6h-2.529V0h2.53z" mask="url(#5y49eeinfe)" transform="matrix(-1 0 0 1 47.56 0)"/>
            </g>
            <g transform="translate(-1278 -603) translate(990 515) translate(288 88) translate(16.96 15.403) rotate(-5 30.32 .147)">
                <ellipse cx="6.323" cy="9.382" fill="#401A16" rx="3.188" ry="5.063"/>
                <path fill="#401A16" d="M22.4 11.597c1.761 0 3.188-.016 3.188-2.812s-1.427-5.063-3.187-5.063c-1.76 0-3.188 2.267-3.188 5.063s1.427 2.812 3.188 2.812z"/>
                <path stroke="#401A16" stroke-linecap="round" stroke-linejoin="round" stroke-width="2.25" d="M0.126 0.718L10.469 8.145 10.399 4.88"/>
                <path stroke="#401A16" stroke-linecap="round" stroke-linejoin="round" stroke-width="2.25" d="M17.993 1.271L27.854 5.783" transform="scale(-1 1) rotate(15.078 0 -169.69)"/>
            </g>
        </g>
    </g>
</svg>
