<svg xmlns="http://www.w3.org/2000/svg" xmlns:xlink="http://www.w3.org/1999/xlink" width="20" height="20" viewBox="0 0 20 20">
    <defs>
        <filter id="iar8x7wtnb">
            <feColorMatrix in="SourceGraphic" values="0 0 0 0 0.750000 0 0 0 0 0.750000 0 0 0 0 0.750000 0 0 0 1.000000 0"/>
        </filter>
        <path id="jkxjykpzma" d="M9.167 4.167c.46 0 .833.373.833.833 0 .46-.373.833-.833.833h-5c-.46 0-.834.373-.834.834v9.166c0 .46.373.834.834.834h9.166c.46 0 .834-.373.834-.834v-5c0-.46.373-.833.833-.833.46 0 .833.373.833.833v5c0 1.381-1.119 2.5-2.5 2.5H4.167c-1.381 0-2.5-1.119-2.5-2.5V6.667c0-1.381 1.119-2.5 2.5-2.5zm8.333-2.5c.046 0 .093.004.139.011.06.01.117.026.171.048l.018.008c.027.011.053.024.078.038l.027.016c.019.011.038.024.056.037.035.025.068.054.1.086l-.06-.055c.016.014.032.027.047.042l.013.013.01.01c.018.018.034.036.05.055l.026.036.03.044c.01.014.018.028.025.042l.029.057.016.038c.038.095.058.198.058.307v5c0 .46-.373.833-.833.833-.46 0-.833-.373-.833-.833V4.51l-7.744 7.746c-.299.298-.767.323-1.094.075l-.085-.075c-.325-.326-.325-.853 0-1.179l7.745-7.744H12.5c-.425 0-.775-.318-.827-.728l-.006-.105c0-.46.373-.833.833-.833z"/>
    </defs>
    <g fill="none" fill-rule="evenodd">
        <g transform="translate(-262 -716) translate(0 651) translate(0 48) translate(262 17)">
            <mask id="8pnkpwhqtc" fill="currentColor">
                <use xlink:href="#jkxjykpzma"/>
            </mask>
            <use fill="currentColor" fill-rule="nonzero" xlink:href="#jkxjykpzma"/>
            <g filter="url(#iar8x7wtnb)">
                <g mask="url(#8pnkpwhqtc)">
                    <path fill="currentColor" d="M0 0H20V20H0z"/>
                </g>
            </g>
        </g>
    </g>
</svg>
