<svg xmlns="http://www.w3.org/2000/svg" width="19" height="20" viewBox="0 0 19 20">
    <g fill="none" fill-rule="evenodd">
        <g fill="currentColor">
            <path d="M10.132 10.426L2.19 19.153l10.622-5.818-2.68-2.909zm3.4-3.726l-2.844 3.105 2.843 3.105 3.89-2.124c.719-.392 1.013-.588 1.013-.98 0-.393-.294-.589-1.013-.981L13.53 6.7zM2.19.49l7.91 8.727 2.647-2.909L2.19.49zM.654 0C.26.13 0 .556 0 1.144v17.323c0 .588.229 1.013.621 1.144l8.923-9.806L.654 0z" transform="translate(-909 -849) translate(876 710) translate(16 125) translate(17 14)"/>
        </g>
    </g>
</svg>
