<svg xmlns="http://www.w3.org/2000/svg" width="40" height="40" fill="none" viewBox="0 0 40 40">
    <path fill="#002E6B" fill-rule="evenodd" d="M19.998 28.724c9.39 0 17.002-3.968 17.002-8.86C37 14.968 29.387 11 19.998 11 10.613 11 3 14.968 3 19.864c0 4.892 7.613 8.86 16.998 8.86zm3.113-4.132c-.296.723-.792 1.937-1.803 2.452-.34.171-.76.252-1.134.266h-.172c-3.137 0-6.059-.445-8.503-1.202l-.055-.021-.038-.015c-.226-.077-.341-.183-.341-.315 0-.113.06-.2.14-.28l.054-.05.1-.09c.567-.479 2.265-1.732 5.467-2.981 1.123-.435 2.53-.98 4.001-1.297.862-.183 4.063-.684 2.373 3.317l-.09.216zm8.965-9.354c-.147.008-.227.099-.288.205-.029.052-.061.122-.097.199l-.039.083c-.65 1.534-2.94 6.854-5.944 10.46-.075.092-.114.147-.147.209-.071.12-.057.219 0 .274.08.09.316.094.668.02 5.52-1.146 9.378-3.773 9.378-6.828 0-1.692-1.184-3.255-3.18-4.505-.165-.106-.272-.125-.351-.117zm-15.137-.123c.296-.723.792-1.937 1.803-2.449.341-.171.761-.255 1.134-.266.066-.002.117-.001.147 0h.022c3.14 0 6.058.442 8.506 1.202l.055.022.038.014c.227.077.341.183.341.315 0 .113-.06.197-.14.277-.035.037-.086.08-.154.14-.563.482-2.265 1.731-5.466 2.98-1.127.44-2.53.98-3.998 1.298-.865.186-4.067.683-2.376-3.318l.088-.215zm-2.497-2.062c-.086-.09-.32-.09-.675-.021h.001c-5.52 1.147-9.378 3.774-9.378 6.828 0 1.692 1.184 3.256 3.18 4.505.165.101.276.125.355.117.144-.007.226-.098.284-.204.04-.07.09-.176.136-.282.653-1.538 2.943-6.854 5.947-10.464.072-.084.112-.143.148-.205.067-.12.053-.215.002-.274z" clip-rule="evenodd"/>
</svg>
