<svg xmlns="http://www.w3.org/2000/svg" width="40" height="40" fill="none" viewBox="0 0 40 40">
	<path fill="#E82127" fill-rule="evenodd" d="M34.854 9.914c-5.15-2.271-10.18-2.993-14.576-2.96-4.396-.033-9.427.689-14.577 2.96-.613-1.125-.864-1.808-.864-1.808 5.629-2.254 10.9-3.025 15.44-3.044 4.54.019 9.813.79 15.443 3.044 0 0-.177.554-.866 1.808zM24.6 11.591L20.28 36.18l-4.356-24.592c-4.09.003-5.387.46-5.576 2.325 0 0-2.764-1.042-4.156-3.16 5.437-2.549 10.9-2.664 10.9-2.664l3.184 3.925L23.46 8.09s5.464.115 10.901 2.664c-1.393 2.117-4.156 3.16-4.156 3.16-.188-1.866-1.486-2.323-5.605-2.323z" clip-rule="evenodd" />
</svg>
