<svg xmlns="http://www.w3.org/2000/svg" width="36" height="36" viewBox="0 0 36 36">
    <g fill="none" fill-rule="evenodd">
        <g transform="translate(-204 -451) translate(192 441) translate(12 10)">
            <path stroke="#F3CF5F" stroke-width="2" d="M21 5c.276 0 .526.112.707.293.181.18.293.43.293.707h0v3h-8V6c0-.276.112-.526.293-.707.18-.181.43-.293.707-.293h0z"/>
            <circle cx="17.625" cy="24.625" r="1.125" fill="#FFF"/>
            <circle cx="22.125" cy="24.625" r="1.125" fill="#FFF"/>
            <path stroke="#FFF" stroke-width="1.125" d="M11.813 18.063H12.813V30.438H11.813z"/>
            <path fill="#F7C019" d="M8.528 8h18.944c.902 0 1.693.604 1.93 1.474l2.454 9c.094.344.094.708 0 1.052l-2.454 9c-.237.87-1.028 1.474-1.93 1.474H8.528c-.902 0-1.693-.604-1.93-1.474l-2.454-9c-.094-.344-.094-.708 0-1.052l2.454-9C6.835 8.604 7.626 8 8.528 8z"/>
            <rect fill="#F5A720" style="mix-blend-mode:multiply" width="30" height="4" x="3" y="17" opacity=".8" rx="1"/>
            <path stroke="#E58507" stroke-width="1.5" d="M11.75 11.75H12.75V14.25H11.75zM15.75 11.75H16.75V14.25H15.75zM19.75 11.75H20.75V14.25H19.75zM23.75 11.75H24.75V14.25H23.75z"/>
            <path stroke="#FFF" stroke-width="1.5" d="M17.75 17.75H18.75V24.25H17.75z" transform="rotate(90 18 21)"/>
        </g>
    </g>
</svg>
