<svg xmlns="http://www.w3.org/2000/svg" width="48" height="48" viewBox="0 0 48 48">
    <g fill="none" fill-rule="evenodd">
        <g>
            <path d="M0 0H48V48H0z" transform="translate(-47 -260) translate(18 240) translate(29 20)"/>
        </g>
        <path fill="#147BF9" d="M16 36H32V41H16z" transform="translate(-47 -260) translate(18 240) translate(29 20)"/>
        <path fill="#FFF" d="M19 18H40V21H19z" transform="translate(-47 -260) translate(18 240) translate(29 20)"/>
        <path fill="#147BF9" d="M8 21h32v2c0 8.837-7.163 16-16 16S8 31.837 8 23v-2z" transform="translate(-47 -260) translate(18 240) translate(29 20)"/>
        <path stroke="#4E4E4E" stroke-width="1.5" d="M10.75 15.75H37.25V17.25H10.75zM10.75 10.75H37.25V12.25H10.75z" transform="translate(-47 -260) translate(18 240) translate(29 20)"/>
    </g>
</svg>
