<svg xmlns="http://www.w3.org/2000/svg" xmlns:xlink="http://www.w3.org/1999/xlink" width="36" height="36" viewBox="0 0 36 36">
    <defs>
        <path id="yosf8impda" d="M9.997.886l7.248 6.443c.48.427.755 1.039.755 1.681V23H0V9.01c0-.642.275-1.254.755-1.681L8.003.886C8.572.38 9.428.38 9.997.886z"/>
    </defs>
    <g fill="none" fill-rule="evenodd">
        <path fill="#14A9F9" style="mix-blend-mode:multiply" d="M12 29H24V33H12z" opacity=".8" transform="translate(-32 -451) translate(20 441) translate(12 10)"/>
        <g transform="translate(-32 -451) translate(20 441) translate(12 10) translate(3 4)">
            <path fill="#14A9F9" d="M6 15.5l6 7.5H1.56c-.414 0-.75-.336-.75-.75 0-.17.058-.336.165-.469L6 15.5z" style="mix-blend-mode:multiply" opacity=".8"/>
            <path fill="#14A9F9" d="M24 16l6 7H19.63c-.414 0-.75-.336-.75-.75 0-.179.065-.352.181-.488L24 16z" style="mix-blend-mode:multiply" opacity=".8" transform="matrix(-1 0 0 1 48 0)"/>
            <use fill="#2B88F9" xlink:href="#yosf8impda"/>
            <circle cx="15" cy="12" r="3" fill="#FFF"/>
        </g>
    </g>
</svg>
