<svg xmlns="http://www.w3.org/2000/svg" width="36" height="36" viewBox="0 0 36 36">
    <g fill="none" fill-rule="evenodd">
        <path fill="#FA506B" d="M8.343 13h19.314c.765 0 1.407.575 1.491 1.334l1.667 15c.091.824-.502 1.565-1.325 1.657-.055.006-.11.009-.166.009H6.676c-.829 0-1.5-.672-1.5-1.5 0-.055.003-.11.01-.166l1.666-15c.084-.76.726-1.334 1.49-1.334z" transform="translate(-32 -387) translate(20 377) translate(12 10)"/>
        <path fill="#CE1128" d="M24 13h3.657c.765 0 1.407.575 1.491 1.334l1.667 15c.091.824-.502 1.565-1.325 1.657-.055.006-.11.009-.166.009H22l2-18z" transform="translate(-32 -387) translate(20 377) translate(12 10)"/>
        <path fill="#FFF" d="M11 16L20 16 20 18 11 18z" transform="translate(-32 -387) translate(20 377) translate(12 10)"/>
        <path fill="#FF89A5" d="M18 4c3.82 0 6.873 3.203 6.996 7.138l.004.247V16h-4v-4.615C21 9.484 19.622 8 18 8c-1.566 0-2.905 1.383-2.995 3.19l-.005.195V16h-4v-4.615C11 7.338 14.1 4 18 4z" style="mix-blend-mode:multiply" transform="translate(-32 -387) translate(20 377) translate(12 10)"/>
    </g>
</svg>
