<svg xmlns="http://www.w3.org/2000/svg" width="36" height="36" viewBox="0 0 36 36">
    <g fill="none" fill-rule="evenodd">
        <path fill="#B888F0" d="M6 13h24v14c0 1.105-.895 2-2 2H8c-1.105 0-2-.895-2-2V13z" transform="translate(-204 -323) translate(192 313) translate(12 10)"/>
        <path fill="#863FEA" d="M7.67 7H11v7.5c0 1.933-1.567 3.5-3.5 3.5-1.613 0-2.921-1.308-2.921-2.921 0-.175.016-.35.047-.523l1.075-5.914C5.874 7.692 6.703 7 7.67 7zM11 7h7v7.5c0 1.933-1.567 3.5-3.5 3.5S11 16.433 11 14.5V7zM18 7h7v7.5c0 1.933-1.567 3.5-3.5 3.5S18 16.433 18 14.5V7zM25 7h3.33c.967 0 1.796.691 1.969 1.642l1.075 5.914c.288 1.588-.764 3.108-2.351 3.397-.173.031-.348.047-.523.047-1.933 0-3.5-1.567-3.5-3.5V7zM15 21h6c.552 0 1 .448 1 1v7h-8v-7c0-.552.448-1 1-1z" transform="translate(-204 -323) translate(192 313) translate(12 10)"/>
        <path fill="#FFF" d="M22 21L22 23 14 23 14 21z" transform="translate(-204 -323) translate(192 313) translate(12 10)"/>
    </g>
</svg>
