<svg xmlns="http://www.w3.org/2000/svg" width="36" height="36" viewBox="0 0 36 36">
    <g fill="none" fill-rule="evenodd">
        <path d="M0 0H36V36H0z" transform="translate(-32 -322) translate(20 312) translate(12 10)"/>
        <path fill="#17DA6B" d="M19.5 3.25c.828 0 1.5.672 1.5 1.5v4.762c3.496 1.236 6 4.57 6 8.488v13.5c0 .828-.672 1.5-1.5 1.5h-15c-.828 0-1.5-.672-1.5-1.5V18l.004-.265c.11-3.804 2.58-7.016 5.996-8.223V4.75c0-.828.672-1.5 1.5-1.5h3z" transform="translate(-32 -322) translate(20 312) translate(12 10)"/>
        <path fill="#00B04C" d="M9 18h6.5c.828 0 1.5.672 1.5 1.5v9c0 .828-.672 1.5-1.5 1.5H9V18zM16 3h4c.552 0 1 .448 1 1v3h-6V4c0-.552.448-1 1-1z" transform="translate(-32 -322) translate(20 312) translate(12 10)"/>
        <path fill="#FFF" fill-rule="nonzero" d="M22.243 13.757C23.328 14.843 24 16.343 24 18h-2c0-1.077-.425-2.082-1.172-2.828-.508-.51-1.137-.869-1.827-1.046v-2.043c1.256.211 2.38.812 3.242 1.674z" transform="translate(-32 -322) translate(20 312) translate(12 10)"/>
    </g>
</svg>
