<svg xmlns="http://www.w3.org/2000/svg" width="48" height="48" viewBox="0 0 48 48">
    <g fill="none" fill-rule="evenodd">
        <path d="M0 0H48V48H0z" transform="translate(-164 -260) translate(18 240) translate(146 20)"/>
        <path fill="#F75C44" d="M6 15h28v20c0 2.761-6.268 5-14 5S6 37.761 6 35V15z" transform="translate(-164 -260) translate(18 240) translate(146 20)"/>
        <path fill="#4E4E4E" fill-rule="nonzero" d="M36 17.5c4.694 0 8.5 3.806 8.5 8.5s-3.806 8.5-8.5 8.5v-3c3.038 0 5.5-2.462 5.5-5.5s-2.462-5.5-5.5-5.5z" transform="translate(-164 -260) translate(18 240) translate(146 20)"/>
    </g>
</svg>
