<svg xmlns="http://www.w3.org/2000/svg" width="48" height="48" viewBox="0 0 48 48">
    <g fill="none" fill-rule="evenodd">
        <g transform="translate(-164 -494) translate(18 240) translate(146 254)">
            <path d="M0 0H48V48H0z"/>
            <path fill="#4E4E4E" fill-rule="nonzero" d="M24 12.5l.392.002c1.565.015 3.079.12 4.512.306l.709.1.695.113c3.59.628 6.554 1.797 8.343 3.372l-2.51 1.793c-.807-.543-1.943-1.051-3.327-1.477l-.536-.157c-.455-.128-.934-.246-1.434-.354l-.61-.125c-1.859-.358-3.977-.573-6.234-.573l-.375.002c-2.117.022-4.103.233-5.86.571l-.609.125c-.5.108-.979.226-1.434.354l-.536.157c-1.384.426-2.52.935-3.327 1.477l-2.51-1.793c1.788-1.575 4.753-2.744 8.343-3.372l.695-.113.71-.1c1.551-.202 3.199-.308 4.903-.308z"/>
            <path fill="#F75C44" d="M41.001 21.305L41 31.647h-.05c-.506 2.694-4.843 4.954-10.81 5.89l-.77.113-.788.097C27.124 37.912 25.588 38 24 38c-1.588 0-3.124-.088-4.582-.253l-.787-.097-.77-.113c-5.968-.936-10.305-3.196-10.811-5.89H7l-.001-10.342C9.449 24.04 16.136 26 24 26c7.864 0 14.55-1.961 17.001-4.695z"/>
            <circle cx="23.5" cy="31.5" r="1.5" fill="#FFF"/>
            <circle cx="29.5" cy="31.5" r="1.5" fill="#FFF"/>
            <path stroke="#FFF" stroke-width="1.5" d="M15.75 22.75H16.75V39.25H15.75z"/>
        </g>
    </g>
</svg>
