<svg xmlns="http://www.w3.org/2000/svg" width="25" height="24" fill="none" viewBox="0 0 25 24">
	<path fill="currentColor" fill-rule="evenodd" d="M6.027 2c-2.209 0-4 1.79-4 4v12c0 2.21 1.791 4 4 4h12.27c2.21 0 4-1.79 4-4V6c0-2.21-1.79-4-4-4H6.027zm1.054 5c-.552 0-1 .448-1 1s.448 1 1 1h10.162c.553 0 1-.448 1-1s-.447-1-1-1H7.081zm-1 5c0-.552.448-1 1-1h10.162c.553 0 1 .448 1 1s-.447 1-1 1H7.081c-.552 0-1-.448-1-1zm1 3c-.552 0-1 .448-1 1s.448 1 1 1h10.162c.553 0 1-.448 1-1s-.447-1-1-1H7.081z" clip-rule="evenodd" />
</svg>
