<svg xmlns="http://www.w3.org/2000/svg" xmlns:xlink="http://www.w3.org/1999/xlink" width="20" height="20" viewBox="0 0 20 20">
    <defs>
        <path id="0clac4toaa" d="M8.75 1.667c3.912 0 7.083 3.171 7.083 7.083 0 1.656-.568 3.179-1.52 4.385l3.776 3.776c.326.325.326.853 0 1.178-.325.326-.853.326-1.178 0l-3.776-3.775c-1.206.951-2.73 1.52-4.385 1.52-3.912 0-7.083-3.172-7.083-7.084 0-3.912 3.171-7.083 7.083-7.083zm0 1.666c-2.992 0-5.417 2.425-5.417 5.417s2.425 5.417 5.417 5.417c1.479 0 2.819-.593 3.796-1.553l.031-.037.035-.032c.962-.976 1.555-2.316 1.555-3.795 0-2.992-2.425-5.417-5.417-5.417z"/>
    </defs>
    <g fill="none" fill-rule="evenodd">
        <g transform="translate(-62 -63) translate(1 44) translate(61 19)">
            <mask id="g0n9f2rrcb" fill="#fff">
                <use xlink:href="#0clac4toaa"/>
            </mask>
            <use fill="#000" fill-rule="nonzero" xlink:href="#0clac4toaa"/>
            <path fill="currentColor" d="M0 0H20V20H0z" mask="url(#g0n9f2rrcb)"/>
        </g>
    </g>
</svg>
