<svg xmlns="http://www.w3.org/2000/svg" xmlns:xlink="http://www.w3.org/1999/xlink" width="24" height="24" viewBox="0 0 24 24">
    <defs>
        <path id="i14et9unga" d="M16 14c2.761 0 5 2.239 5 5v2c0 .552-.448 1-1 1s-1-.448-1-1v-2c0-1.657-1.343-3-3-3H8c-1.657 0-3 1.343-3 3v2c0 .552-.448 1-1 1s-1-.448-1-1v-2c0-2.761 2.239-5 5-5zM12 2c2.761 0 5 2.239 5 5s-2.239 5-5 5-5-2.239-5-5 2.239-5 5-5zm0 2c-1.657 0-3 1.343-3 3s1.343 3 3 3 3-1.343 3-3-1.343-3-3-3z"/>
    </defs>
    <g fill="none" fill-rule="evenodd">
        <g>
            <g>
                <g transform="translate(-321 -1184) translate(0 1175) translate(321 9)">
                    <mask id="0xt6zv84cb" fill="#fff">
                        <use xlink:href="#i14et9unga"/>
                    </mask>
                    <use fill="#000" fill-rule="nonzero" xlink:href="#i14et9unga"/>
                    <path fill="#333" d="M0 0H24V24H0z" mask="url(#0xt6zv84cb)"/>
                </g>
            </g>
        </g>
    </g>
</svg>
