<svg xmlns="http://www.w3.org/2000/svg" width="375" height="280" viewBox="0 0 375 280">
    <g fill="none" fill-rule="evenodd">
        <path fill="#E6E6E6" d="M0 0H375V278.994H0z" transform="translate(0 -482) translate(0 104) translate(0 378.006)"/>
        <path fill="#CCC" d="M209.154 120.994c1.337 0 1.822.14 2.311.4.49.262.873.646 1.134 1.135.262.489.401.974.401 2.311v30.308c0 1.338-.14 1.823-.4 2.311-.262.49-.646.873-1.135 1.135-.489.261-.974.4-2.31.4h-40.31c-1.336 0-1.821-.139-2.31-.4-.49-.262-.873-.646-1.134-1.135-.262-.488-.401-.973-.401-2.31V124.84c0-1.337.14-1.822.4-2.311.262-.489.646-.873 1.135-1.134.489-.262.974-.4 2.31-.4h40.31zm-23.947 13.926c-.35-.352-.917-.396-1.32-.084-.066.052-.126.112-.177.178l-13.46 17.368-.07.104c-.254.427-.155.986.248 1.299.175.136.39.21.612.21h35.903l.116-.007c.497-.058.884-.48.884-.994 0-.224-.076-.441-.214-.618l-8.943-11.381-.083-.094c-.353-.35-.92-.39-1.32-.074l-.09.079c-.028.028-.055.058-.08.089l-3.669 4.67-8.254-10.65zM201 128.994c-2.21 0-4 1.791-4 4 0 2.21 1.79 4 4 4s4-1.79 4-4c0-2.209-1.79-4-4-4z" transform="translate(0 -482) translate(0 104) translate(0 378.006)"/>
    </g>
</svg>
